<svg xmlns="http://www.w3.org/2000/svg" width="640" height="360" viewBox="0 0 640 360">
  <defs>
    <linearGradient id="bg" x1="0" y1="0" x2="1" y2="1">
      <stop offset="0" stop-color="#654ea3"/>
      <stop offset="1" stop-color="#eaafc8"/>
    </linearGradient>
  </defs>
  <rect width="640" height="360" fill="url(#bg)"/>
  <circle cx="570" cy="40" r="130" fill="#ffffff" fill-opacity="0.08"/>
  <circle cx="50" cy="330" r="90" fill="#000000" fill-opacity="0.10"/>
  <text x="13" y="279" font-size="30" fill="#ffffff" fill-opacity="0.09" font-family="Consolas,monospace" font-weight="700" transform="rotate(12 13 279)">&lt;/&gt;</text>
  <text x="37" y="177" font-size="37" fill="#ffffff" fill-opacity="0.09" font-family="Consolas,monospace" font-weight="700" transform="rotate(11 37 177)">*</text>
  <text x="222" y="122" font-size="39" fill="#ffffff" fill-opacity="0.09" font-family="Consolas,monospace" font-weight="700" transform="rotate(29 222 122)">[ ]</text>
  <text x="400" y="293" font-size="36" fill="#ffffff" fill-opacity="0.09" font-family="Consolas,monospace" font-weight="700" transform="rotate(-16 400 293)">;</text>
  <text x="418" y="135" font-size="35" fill="#ffffff" fill-opacity="0.09" font-family="Consolas,monospace" font-weight="700" transform="rotate(-12 418 135)">//</text>
  <text x="390" y="37" font-size="34" fill="#ffffff" fill-opacity="0.09" font-family="Consolas,monospace" font-weight="700" transform="rotate(7 390 37)">{ }</text>
  <text x="9" y="179" font-size="35" fill="#ffffff" fill-opacity="0.09" font-family="Consolas,monospace" font-weight="700" transform="rotate(8 9 179)">=</text>
  <text x="604" y="182" font-size="14" fill="#ffffff" fill-opacity="0.09" font-family="Consolas,monospace" font-weight="700" transform="rotate(-14 604 182)">( )</text>
  <text x="236" y="76" font-size="32" fill="#ffffff" fill-opacity="0.09" font-family="Consolas,monospace" font-weight="700" transform="rotate(1 236 76)">#</text>
  <text x="411" y="144" font-size="35" fill="#ffffff" fill-opacity="0.09" font-family="Consolas,monospace" font-weight="700" transform="rotate(-17 411 144)">&lt;/&gt;</text>
  <text x="9" y="216" font-size="33" fill="#ffffff" fill-opacity="0.09" font-family="Consolas,monospace" font-weight="700" transform="rotate(11 9 216)">[ ]</text>
  <text x="488" y="40" font-size="33" fill="#ffffff" fill-opacity="0.09" font-family="Consolas,monospace" font-weight="700" transform="rotate(-25 488 40)">=</text>
  <text x="242" y="219" font-size="24" fill="#ffffff" fill-opacity="0.09" font-family="Consolas,monospace" font-weight="700" transform="rotate(-10 242 219)">//</text>
  <text x="454" y="342" font-size="21" fill="#ffffff" fill-opacity="0.09" font-family="Consolas,monospace" font-weight="700" transform="rotate(-25 454 342)">( )</text>
  
  <text x="320" y="184" font-size="96" text-anchor="middle" dominant-baseline="middle"
        font-family="'Segoe UI Emoji','Apple Color Emoji',Consolas,monospace" font-weight="800" fill="#ffffff"
        style="paint-order:stroke" stroke="#000000" stroke-opacity="0.15" stroke-width="4">&#9733;</text>
  <rect x="24" y="308" width="4" height="26" rx="2" fill="#ffffff" fill-opacity="0.9"/>
  <text x="38" y="328" font-size="17" font-family="'Segoe UI',Arial,sans-serif" font-weight="700"
        fill="#ffffff" fill-opacity="0.92" letter-spacing="2">CAREER</text>
  <text x="616" y="328" font-size="13" text-anchor="end" font-family="'Segoe UI',Arial,sans-serif"
        font-weight="600" fill="#ffffff" fill-opacity="0.55">WebDev Academy</text>
</svg>
