<svg xmlns="http://www.w3.org/2000/svg" width="640" height="360" viewBox="0 0 640 360">
  <defs>
    <linearGradient id="bg" x1="0" y1="0" x2="1" y2="1">
      <stop offset="0" stop-color="#092e20"/>
      <stop offset="1" stop-color="#44b78b"/>
    </linearGradient>
    <radialGradient id="glow" cx="0.5" cy="0.35" r="0.75">
      <stop offset="0" stop-color="#ffffff" stop-opacity="0.16"/>
      <stop offset="1" stop-color="#ffffff" stop-opacity="0"/>
    </radialGradient>
  </defs>
  <rect width="640" height="360" fill="url(#bg)"/>
  <rect width="640" height="360" fill="url(#glow)"/>
  <circle cx="570" cy="40" r="130" fill="#ffffff" fill-opacity="0.08"/>
  <circle cx="50" cy="330" r="90" fill="#000000" fill-opacity="0.10"/>
  <text x="110" y="160" font-size="17" fill="#ffffff" fill-opacity="0.09" font-family="Consolas,monospace" font-weight="700" transform="rotate(7 110 160)">{ }</text>
  <text x="521" y="88" font-size="16" fill="#ffffff" fill-opacity="0.09" font-family="Consolas,monospace" font-weight="700" transform="rotate(-27 521 88)">( )</text>
  <text x="143" y="335" font-size="32" fill="#ffffff" fill-opacity="0.09" font-family="Consolas,monospace" font-weight="700" transform="rotate(-19 143 335)">&amp;&amp;</text>
  <text x="357" y="161" font-size="43" fill="#ffffff" fill-opacity="0.09" font-family="Consolas,monospace" font-weight="700" transform="rotate(13 357 161)">//</text>
  <text x="239" y="188" font-size="24" fill="#ffffff" fill-opacity="0.09" font-family="Consolas,monospace" font-weight="700" transform="rotate(-29 239 188)">//</text>
  <text x="314" y="217" font-size="22" fill="#ffffff" fill-opacity="0.09" font-family="Consolas,monospace" font-weight="700" transform="rotate(-9 314 217)">=</text>
  <text x="364" y="309" font-size="39" fill="#ffffff" fill-opacity="0.09" font-family="Consolas,monospace" font-weight="700" transform="rotate(5 364 309)">( )</text>
  <text x="383" y="207" font-size="25" fill="#ffffff" fill-opacity="0.09" font-family="Consolas,monospace" font-weight="700" transform="rotate(16 383 207)">&lt;/&gt;</text>
  <text x="156" y="164" font-size="20" fill="#ffffff" fill-opacity="0.09" font-family="Consolas,monospace" font-weight="700" transform="rotate(8 156 164)">#</text>
  <text x="200" y="182" font-size="23" fill="#ffffff" fill-opacity="0.09" font-family="Consolas,monospace" font-weight="700" transform="rotate(9 200 182)">#</text>
  <text x="41" y="289" font-size="40" fill="#ffffff" fill-opacity="0.09" font-family="Consolas,monospace" font-weight="700" transform="rotate(-13 41 289)">;</text>
  <text x="102" y="318" font-size="33" fill="#ffffff" fill-opacity="0.09" font-family="Consolas,monospace" font-weight="700" transform="rotate(-29 102 318)">{ }</text>
  <text x="498" y="215" font-size="32" fill="#ffffff" fill-opacity="0.09" font-family="Consolas,monospace" font-weight="700" transform="rotate(2 498 215)">&amp;&amp;</text>
  <text x="540" y="135" font-size="31" fill="#ffffff" fill-opacity="0.09" font-family="Consolas,monospace" font-weight="700" transform="rotate(7 540 135)">( )</text>
  
  <text x="320" y="156" font-size="92" text-anchor="middle" dominant-baseline="middle"
        font-family="'Segoe UI Emoji','Apple Color Emoji',Consolas,monospace" font-weight="800" fill="#ffffff"
        style="paint-order:stroke" stroke="#000000" stroke-opacity="0.15" stroke-width="4">dj</text>
  <rect x="212" y="224" width="216" height="38" rx="19"
        fill="#000000" fill-opacity="0.28" stroke="#ffffff" stroke-opacity="0.35" stroke-width="1"/>
  <text x="320" y="249" font-size="18" text-anchor="middle"
        font-family="'Segoe UI Emoji','Segoe UI',Arial,sans-serif" font-weight="700"
        fill="#ffffff" fill-opacity="0.95">📚 11 lessons · ⏱ 16h</text>
  <rect x="24" y="308" width="4" height="26" rx="2" fill="#ffffff" fill-opacity="0.9"/>
  <text x="38" y="328" font-size="17" font-family="'Segoe UI',Arial,sans-serif" font-weight="700"
        fill="#ffffff" fill-opacity="0.92" letter-spacing="2">BACKEND · INTERMEDIATE</text>
  <text x="616" y="328" font-size="13" text-anchor="end" font-family="'Segoe UI',Arial,sans-serif"
        font-weight="600" fill="#ffffff" fill-opacity="0.55">WebDev Academy</text>
</svg>
