<svg xmlns="http://www.w3.org/2000/svg" width="640" height="360" viewBox="0 0 640 360">
  <defs>
    <linearGradient id="bg" x1="0" y1="0" x2="1" y2="1">
      <stop offset="0" stop-color="#134e5e"/>
      <stop offset="1" stop-color="#71b280"/>
    </linearGradient>
    <radialGradient id="glow" cx="0.5" cy="0.35" r="0.75">
      <stop offset="0" stop-color="#ffffff" stop-opacity="0.16"/>
      <stop offset="1" stop-color="#ffffff" stop-opacity="0"/>
    </radialGradient>
  </defs>
  <rect width="640" height="360" fill="url(#bg)"/>
  <rect width="640" height="360" fill="url(#glow)"/>
  <circle cx="570" cy="40" r="130" fill="#ffffff" fill-opacity="0.08"/>
  <circle cx="50" cy="330" r="90" fill="#000000" fill-opacity="0.10"/>
  <text x="91" y="113" font-size="27" fill="#ffffff" fill-opacity="0.09" font-family="Consolas,monospace" font-weight="700" transform="rotate(26 91 113)">[ ]</text>
  <text x="355" y="184" font-size="23" fill="#ffffff" fill-opacity="0.09" font-family="Consolas,monospace" font-weight="700" transform="rotate(-24 355 184)">&amp;&amp;</text>
  <text x="105" y="279" font-size="19" fill="#ffffff" fill-opacity="0.09" font-family="Consolas,monospace" font-weight="700" transform="rotate(24 105 279)">//</text>
  <text x="497" y="264" font-size="29" fill="#ffffff" fill-opacity="0.09" font-family="Consolas,monospace" font-weight="700" transform="rotate(-18 497 264)">( )</text>
  <text x="602" y="92" font-size="31" fill="#ffffff" fill-opacity="0.09" font-family="Consolas,monospace" font-weight="700" transform="rotate(-8 602 92)">&lt;/&gt;</text>
  <text x="235" y="42" font-size="27" fill="#ffffff" fill-opacity="0.09" font-family="Consolas,monospace" font-weight="700" transform="rotate(-7 235 42)">#</text>
  <text x="331" y="241" font-size="40" fill="#ffffff" fill-opacity="0.09" font-family="Consolas,monospace" font-weight="700" transform="rotate(-7 331 241)">;</text>
  <text x="408" y="142" font-size="17" fill="#ffffff" fill-opacity="0.09" font-family="Consolas,monospace" font-weight="700" transform="rotate(-7 408 142)">[ ]</text>
  <text x="479" y="339" font-size="16" fill="#ffffff" fill-opacity="0.09" font-family="Consolas,monospace" font-weight="700" transform="rotate(5 479 339)">#</text>
  <text x="417" y="143" font-size="31" fill="#ffffff" fill-opacity="0.09" font-family="Consolas,monospace" font-weight="700" transform="rotate(12 417 143)">{ }</text>
  <text x="363" y="74" font-size="16" fill="#ffffff" fill-opacity="0.09" font-family="Consolas,monospace" font-weight="700" transform="rotate(17 363 74)">//</text>
  <text x="224" y="335" font-size="16" fill="#ffffff" fill-opacity="0.09" font-family="Consolas,monospace" font-weight="700" transform="rotate(17 224 335)">&lt;/&gt;</text>
  <text x="391" y="152" font-size="37" fill="#ffffff" fill-opacity="0.09" font-family="Consolas,monospace" font-weight="700" transform="rotate(-30 391 152)">;</text>
  <text x="73" y="278" font-size="23" fill="#ffffff" fill-opacity="0.09" font-family="Consolas,monospace" font-weight="700" transform="rotate(-30 73 278)">{ }</text>
  
  <text x="320" y="156" font-size="92" text-anchor="middle" dominant-baseline="middle"
        font-family="'Segoe UI Emoji','Apple Color Emoji',Consolas,monospace" font-weight="800" fill="#ffffff"
        style="paint-order:stroke" stroke="#000000" stroke-opacity="0.15" stroke-width="4">⚙️</text>
  <rect x="212" y="224" width="216" height="38" rx="19"
        fill="#000000" fill-opacity="0.28" stroke="#ffffff" stroke-opacity="0.35" stroke-width="1"/>
  <text x="320" y="249" font-size="18" text-anchor="middle"
        font-family="'Segoe UI Emoji','Segoe UI',Arial,sans-serif" font-weight="700"
        fill="#ffffff" fill-opacity="0.95">📚 13 lessons · ⏱ 12h</text>
  <rect x="24" y="308" width="4" height="26" rx="2" fill="#ffffff" fill-opacity="0.9"/>
  <text x="38" y="328" font-size="17" font-family="'Segoe UI',Arial,sans-serif" font-weight="700"
        fill="#ffffff" fill-opacity="0.92" letter-spacing="2">PROGRAMMING · INTERMEDIATE</text>
  <text x="616" y="328" font-size="13" text-anchor="end" font-family="'Segoe UI',Arial,sans-serif"
        font-weight="600" fill="#ffffff" fill-opacity="0.55">WebDev Academy</text>
</svg>
