<svg xmlns="http://www.w3.org/2000/svg" width="640" height="360" viewBox="0 0 640 360">
  <defs>
    <linearGradient id="bg" x1="0" y1="0" x2="1" y2="1">
      <stop offset="0" stop-color="#215732"/>
      <stop offset="1" stop-color="#68a063"/>
    </linearGradient>
    <radialGradient id="glow" cx="0.5" cy="0.35" r="0.75">
      <stop offset="0" stop-color="#ffffff" stop-opacity="0.16"/>
      <stop offset="1" stop-color="#ffffff" stop-opacity="0"/>
    </radialGradient>
  </defs>
  <rect width="640" height="360" fill="url(#bg)"/>
  <rect width="640" height="360" fill="url(#glow)"/>
  <circle cx="570" cy="40" r="130" fill="#ffffff" fill-opacity="0.08"/>
  <circle cx="50" cy="330" r="90" fill="#000000" fill-opacity="0.10"/>
  <text x="476" y="47" font-size="33" fill="#ffffff" fill-opacity="0.09" font-family="Consolas,monospace" font-weight="700" transform="rotate(8 476 47)">{ }</text>
  <text x="584" y="288" font-size="27" fill="#ffffff" fill-opacity="0.09" font-family="Consolas,monospace" font-weight="700" transform="rotate(-18 584 288)">=</text>
  <text x="56" y="50" font-size="21" fill="#ffffff" fill-opacity="0.09" font-family="Consolas,monospace" font-weight="700" transform="rotate(-10 56 50)">*</text>
  <text x="182" y="146" font-size="16" fill="#ffffff" fill-opacity="0.09" font-family="Consolas,monospace" font-weight="700" transform="rotate(10 182 146)">;</text>
  <text x="154" y="123" font-size="14" fill="#ffffff" fill-opacity="0.09" font-family="Consolas,monospace" font-weight="700" transform="rotate(8 154 123)">#</text>
  <text x="304" y="116" font-size="16" fill="#ffffff" fill-opacity="0.09" font-family="Consolas,monospace" font-weight="700" transform="rotate(0 304 116)">=</text>
  <text x="67" y="178" font-size="26" fill="#ffffff" fill-opacity="0.09" font-family="Consolas,monospace" font-weight="700" transform="rotate(-4 67 178)">( )</text>
  <text x="180" y="223" font-size="23" fill="#ffffff" fill-opacity="0.09" font-family="Consolas,monospace" font-weight="700" transform="rotate(18 180 223)">;</text>
  <text x="195" y="180" font-size="31" fill="#ffffff" fill-opacity="0.09" font-family="Consolas,monospace" font-weight="700" transform="rotate(27 195 180)">{ }</text>
  <text x="495" y="318" font-size="43" fill="#ffffff" fill-opacity="0.09" font-family="Consolas,monospace" font-weight="700" transform="rotate(-16 495 318)">;</text>
  <text x="191" y="109" font-size="34" fill="#ffffff" fill-opacity="0.09" font-family="Consolas,monospace" font-weight="700" transform="rotate(-25 191 109)">;</text>
  <text x="259" y="196" font-size="34" fill="#ffffff" fill-opacity="0.09" font-family="Consolas,monospace" font-weight="700" transform="rotate(-27 259 196)">[ ]</text>
  <text x="211" y="81" font-size="42" fill="#ffffff" fill-opacity="0.09" font-family="Consolas,monospace" font-weight="700" transform="rotate(7 211 81)">;</text>
  <text x="585" y="268" font-size="39" fill="#ffffff" fill-opacity="0.09" font-family="Consolas,monospace" font-weight="700" transform="rotate(-17 585 268)">&lt;/&gt;</text>
  
  <text x="320" y="156" font-size="92" text-anchor="middle" dominant-baseline="middle"
        font-family="'Segoe UI Emoji','Apple Color Emoji',Consolas,monospace" font-weight="800" fill="#ffffff"
        style="paint-order:stroke" stroke="#000000" stroke-opacity="0.15" stroke-width="4">⬢</text>
  <rect x="212" y="224" width="216" height="38" rx="19"
        fill="#000000" fill-opacity="0.28" stroke="#ffffff" stroke-opacity="0.35" stroke-width="1"/>
  <text x="320" y="249" font-size="18" text-anchor="middle"
        font-family="'Segoe UI Emoji','Segoe UI',Arial,sans-serif" font-weight="700"
        fill="#ffffff" fill-opacity="0.95">📚 21 lessons · ⏱ 22h</text>
  <rect x="24" y="308" width="4" height="26" rx="2" fill="#ffffff" fill-opacity="0.9"/>
  <text x="38" y="328" font-size="17" font-family="'Segoe UI',Arial,sans-serif" font-weight="700"
        fill="#ffffff" fill-opacity="0.92" letter-spacing="2">BACKEND · INTERMEDIATE</text>
  <text x="616" y="328" font-size="13" text-anchor="end" font-family="'Segoe UI',Arial,sans-serif"
        font-weight="600" fill="#ffffff" fill-opacity="0.55">WebDev Academy</text>
</svg>
