<svg xmlns="http://www.w3.org/2000/svg" width="640" height="360" viewBox="0 0 640 360">
  <defs>
    <linearGradient id="bg" x1="0" y1="0" x2="1" y2="1">
      <stop offset="0" stop-color="#1f65b7"/>
      <stop offset="1" stop-color="#75aadb"/>
    </linearGradient>
    <radialGradient id="glow" cx="0.5" cy="0.35" r="0.75">
      <stop offset="0" stop-color="#ffffff" stop-opacity="0.16"/>
      <stop offset="1" stop-color="#ffffff" stop-opacity="0"/>
    </radialGradient>
  </defs>
  <rect width="640" height="360" fill="url(#bg)"/>
  <rect width="640" height="360" fill="url(#glow)"/>
  <circle cx="570" cy="40" r="130" fill="#ffffff" fill-opacity="0.08"/>
  <circle cx="50" cy="330" r="90" fill="#000000" fill-opacity="0.10"/>
  <text x="305" y="157" font-size="30" fill="#ffffff" fill-opacity="0.09" font-family="Consolas,monospace" font-weight="700" transform="rotate(28 305 157)">&amp;&amp;</text>
  <text x="564" y="318" font-size="43" fill="#ffffff" fill-opacity="0.09" font-family="Consolas,monospace" font-weight="700" transform="rotate(26 564 318)">;</text>
  <text x="503" y="205" font-size="21" fill="#ffffff" fill-opacity="0.09" font-family="Consolas,monospace" font-weight="700" transform="rotate(27 503 205)">&amp;&amp;</text>
  <text x="335" y="204" font-size="23" fill="#ffffff" fill-opacity="0.09" font-family="Consolas,monospace" font-weight="700" transform="rotate(-16 335 204)">*</text>
  <text x="350" y="122" font-size="34" fill="#ffffff" fill-opacity="0.09" font-family="Consolas,monospace" font-weight="700" transform="rotate(12 350 122)">*</text>
  <text x="41" y="227" font-size="17" fill="#ffffff" fill-opacity="0.09" font-family="Consolas,monospace" font-weight="700" transform="rotate(5 41 227)">( )</text>
  <text x="19" y="235" font-size="39" fill="#ffffff" fill-opacity="0.09" font-family="Consolas,monospace" font-weight="700" transform="rotate(3 19 235)">//</text>
  <text x="568" y="321" font-size="17" fill="#ffffff" fill-opacity="0.09" font-family="Consolas,monospace" font-weight="700" transform="rotate(-21 568 321)">( )</text>
  <text x="603" y="88" font-size="39" fill="#ffffff" fill-opacity="0.09" font-family="Consolas,monospace" font-weight="700" transform="rotate(28 603 88)">&lt;/&gt;</text>
  <text x="564" y="238" font-size="22" fill="#ffffff" fill-opacity="0.09" font-family="Consolas,monospace" font-weight="700" transform="rotate(-12 564 238)">{ }</text>
  <text x="579" y="316" font-size="40" fill="#ffffff" fill-opacity="0.09" font-family="Consolas,monospace" font-weight="700" transform="rotate(23 579 316)">#</text>
  <text x="388" y="131" font-size="41" fill="#ffffff" fill-opacity="0.09" font-family="Consolas,monospace" font-weight="700" transform="rotate(-21 388 131)">*</text>
  <text x="293" y="327" font-size="33" fill="#ffffff" fill-opacity="0.09" font-family="Consolas,monospace" font-weight="700" transform="rotate(25 293 327)">;</text>
  <text x="326" y="232" font-size="17" fill="#ffffff" fill-opacity="0.09" font-family="Consolas,monospace" font-weight="700" transform="rotate(-22 326 232)">*</text>
  
  <text x="320" y="156" font-size="92" text-anchor="middle" dominant-baseline="middle"
        font-family="'Segoe UI Emoji','Apple Color Emoji',Consolas,monospace" font-weight="800" fill="#ffffff"
        style="paint-order:stroke" stroke="#000000" stroke-opacity="0.15" stroke-width="4">R</text>
  <rect x="216" y="224" width="208" height="38" rx="19"
        fill="#000000" fill-opacity="0.28" stroke="#ffffff" stroke-opacity="0.35" stroke-width="1"/>
  <text x="320" y="249" font-size="18" text-anchor="middle"
        font-family="'Segoe UI Emoji','Segoe UI',Arial,sans-serif" font-weight="700"
        fill="#ffffff" fill-opacity="0.95">📚 12 lessons · ⏱ 8h</text>
  <rect x="24" y="308" width="4" height="26" rx="2" fill="#ffffff" fill-opacity="0.9"/>
  <text x="38" y="328" font-size="17" font-family="'Segoe UI',Arial,sans-serif" font-weight="700"
        fill="#ffffff" fill-opacity="0.92" letter-spacing="2">PROGRAMMING · BEGINNER</text>
  <text x="616" y="328" font-size="13" text-anchor="end" font-family="'Segoe UI',Arial,sans-serif"
        font-weight="600" fill="#ffffff" fill-opacity="0.55">WebDev Academy</text>
</svg>
