<svg xmlns="http://www.w3.org/2000/svg" width="640" height="360" viewBox="0 0 640 360">
  <defs>
    <linearGradient id="bg" x1="0" y1="0" x2="1" y2="1">
      <stop offset="0" stop-color="#ff6a00"/>
      <stop offset="1" stop-color="#ee0979"/>
    </linearGradient>
    <radialGradient id="glow" cx="0.5" cy="0.35" r="0.75">
      <stop offset="0" stop-color="#ffffff" stop-opacity="0.16"/>
      <stop offset="1" stop-color="#ffffff" stop-opacity="0"/>
    </radialGradient>
  </defs>
  <rect width="640" height="360" fill="url(#bg)"/>
  <rect width="640" height="360" fill="url(#glow)"/>
  <circle cx="570" cy="40" r="130" fill="#ffffff" fill-opacity="0.08"/>
  <circle cx="50" cy="330" r="90" fill="#000000" fill-opacity="0.10"/>
  <text x="284" y="144" font-size="22" fill="#ffffff" fill-opacity="0.09" font-family="Consolas,monospace" font-weight="700" transform="rotate(-16 284 144)">=</text>
  <text x="269" y="295" font-size="25" fill="#ffffff" fill-opacity="0.09" font-family="Consolas,monospace" font-weight="700" transform="rotate(-17 269 295)">*</text>
  <text x="480" y="315" font-size="32" fill="#ffffff" fill-opacity="0.09" font-family="Consolas,monospace" font-weight="700" transform="rotate(-24 480 315)">;</text>
  <text x="490" y="105" font-size="33" fill="#ffffff" fill-opacity="0.09" font-family="Consolas,monospace" font-weight="700" transform="rotate(25 490 105)">;</text>
  <text x="43" y="301" font-size="25" fill="#ffffff" fill-opacity="0.09" font-family="Consolas,monospace" font-weight="700" transform="rotate(21 43 301)">//</text>
  <text x="226" y="69" font-size="30" fill="#ffffff" fill-opacity="0.09" font-family="Consolas,monospace" font-weight="700" transform="rotate(-8 226 69)">*</text>
  <text x="314" y="344" font-size="26" fill="#ffffff" fill-opacity="0.09" font-family="Consolas,monospace" font-weight="700" transform="rotate(-14 314 344)">;</text>
  <text x="636" y="56" font-size="15" fill="#ffffff" fill-opacity="0.09" font-family="Consolas,monospace" font-weight="700" transform="rotate(-28 636 56)">#</text>
  <text x="220" y="137" font-size="33" fill="#ffffff" fill-opacity="0.09" font-family="Consolas,monospace" font-weight="700" transform="rotate(-2 220 137)">&amp;&amp;</text>
  <text x="585" y="252" font-size="30" fill="#ffffff" fill-opacity="0.09" font-family="Consolas,monospace" font-weight="700" transform="rotate(-22 585 252)">=</text>
  <text x="396" y="342" font-size="17" fill="#ffffff" fill-opacity="0.09" font-family="Consolas,monospace" font-weight="700" transform="rotate(-3 396 342)">=</text>
  <text x="247" y="96" font-size="14" fill="#ffffff" fill-opacity="0.09" font-family="Consolas,monospace" font-weight="700" transform="rotate(-23 247 96)">=</text>
  <text x="522" y="349" font-size="39" fill="#ffffff" fill-opacity="0.09" font-family="Consolas,monospace" font-weight="700" transform="rotate(-23 522 349)">[ ]</text>
  <text x="362" y="61" font-size="21" fill="#ffffff" fill-opacity="0.09" font-family="Consolas,monospace" font-weight="700" transform="rotate(2 362 61)">{ }</text>
  
  <text x="320" y="156" font-size="92" text-anchor="middle" dominant-baseline="middle"
        font-family="'Segoe UI Emoji','Apple Color Emoji',Consolas,monospace" font-weight="800" fill="#ffffff"
        style="paint-order:stroke" stroke="#000000" stroke-opacity="0.15" stroke-width="4">&#127760;</text>
  <rect x="216" y="224" width="208" height="38" rx="19"
        fill="#000000" fill-opacity="0.28" stroke="#ffffff" stroke-opacity="0.35" stroke-width="1"/>
  <text x="320" y="249" font-size="18" text-anchor="middle"
        font-family="'Segoe UI Emoji','Segoe UI',Arial,sans-serif" font-weight="700"
        fill="#ffffff" fill-opacity="0.95">📚 24 lessons · ⏱ 7h</text>
  <rect x="24" y="308" width="4" height="26" rx="2" fill="#ffffff" fill-opacity="0.9"/>
  <text x="38" y="328" font-size="17" font-family="'Segoe UI',Arial,sans-serif" font-weight="700"
        fill="#ffffff" fill-opacity="0.92" letter-spacing="2">FUNDAMENTALS · BEGINNER</text>
  <text x="616" y="328" font-size="13" text-anchor="end" font-family="'Segoe UI',Arial,sans-serif"
        font-weight="600" fill="#ffffff" fill-opacity="0.55">WebDev Academy</text>
</svg>
